<?xml version="1.0" standalone="no"?>
<!DOCTYPE svg PUBLIC "-//W3C//DTD SVG 20010904//EN"
 "http://www.w3.org/TR/2001/REC-SVG-20010904/DTD/svg10.dtd">
<svg version="1.0" xmlns="http://www.w3.org/2000/svg"
 width="818.000000pt" height="818.000000pt" viewBox="0 0 818.000000 818.000000"
 preserveAspectRatio="xMidYMid meet">
<metadata>
Created by potrace 1.11, written by Peter Selinger 2001-2013
</metadata>
<g transform="translate(0.000000,818.000000) scale(0.100000,-0.100000)"
fill="#000000" stroke="none">
<path d="M3664 8138 c3 -10 1 -20 -4 -23 -6 -4 -10 1 -10 9 0 10 -6 13 -15 10
-8 -4 -12 -10 -9 -15 3 -5 0 -9 -5 -9 -6 0 -11 7 -11 15 0 8 -4 15 -10 15 -5
0 -10 -4 -10 -10 0 -5 -5 -10 -11 -10 -5 0 -7 4 -4 10 3 6 -1 7 -10 4 -12 -5
-13 -9 -4 -20 10 -12 8 -13 -15 -4 -15 5 -25 6 -21 1 3 -5 0 -11 -7 -14 -7 -2
-2 -2 12 0 24 4 24 4 5 -10 -10 -8 -26 -12 -34 -9 -9 3 -12 1 -7 -6 3 -6 1
-14 -5 -18 -7 -4 -9 -3 -6 3 4 6 0 13 -8 16 -9 4 -12 1 -8 -9 3 -8 -1 -14 -9
-14 -25 0 -39 -22 -25 -39 10 -12 9 -13 -2 -6 -11 6 -13 4 -8 -8 3 -9 1 -19
-5 -23 -7 -5 -6 -11 6 -19 14 -11 15 -13 1 -19 -8 -3 -15 -10 -15 -16 0 -6 6
-8 13 -5 6 4 4 0 -5 -8 -10 -8 -14 -17 -10 -21 4 -5 -2 -6 -13 -4 -16 2 -20
-2 -19 -24 0 -16 -3 -28 -7 -28 -4 0 -6 -9 -4 -19 3 -17 -5 -22 -53 -32 -118
-24 -319 -72 -362 -86 -43 -14 -45 -13 -63 9 -11 13 -17 16 -14 7 3 -9 -1 -16
-8 -16 -8 0 -12 8 -10 20 3 14 1 16 -9 8 -16 -14 -37 5 -29 27 4 10 2 13 -5 8
-7 -4 -12 -2 -12 5 0 7 -3 9 -7 6 -3 -4 -13 -1 -21 6 -13 9 -14 9 -8 0 4 -8 2
-13 -4 -13 -8 0 -10 10 -6 28 5 20 4 23 -4 12 -9 -13 -11 -13 -20 0 -5 8 -10
11 -10 6 0 -5 -15 7 -34 27 -18 20 -36 33 -40 30 -3 -3 2 -12 12 -20 15 -13
15 -13 -5 -3 -13 6 -23 15 -23 19 0 5 -7 12 -16 15 -13 5 -14 4 -6 -7 9 -10 8
-14 -3 -14 -8 0 -15 4 -15 8 0 4 -7 10 -16 13 -15 6 -15 4 -3 -11 10 -12 10
-15 1 -9 -7 4 -20 2 -30 -6 -15 -12 -16 -11 -3 5 12 15 11 17 -3 17 -9 0 -16
-6 -16 -12 0 -9 -3 -8 -10 2 -5 8 -12 11 -16 7 -4 -4 -13 -2 -20 4 -10 8 -12
6 -9 -8 2 -12 -2 -20 -10 -20 -7 0 -11 7 -8 16 3 12 2 12 -7 -2 -6 -9 -8 -23
-4 -30 6 -8 3 -8 -9 1 -14 12 -16 11 -12 -7 5 -25 1 -26 -18 -6 -13 13 -16 13
-21 -1 -4 -10 -2 -13 6 -8 7 5 8 3 4 -5 -5 -7 -14 -10 -21 -7 -8 3 -16 -5 -19
-19 -4 -17 -11 -22 -22 -18 -9 3 -14 0 -12 -8 2 -8 -3 -13 -9 -12 -7 2 -13 -6
-13 -17 0 -11 -4 -20 -10 -20 -5 0 -7 8 -3 18 3 9 4 15 2 12 -37 -44 -42 -53
-29 -46 8 4 6 1 -4 -8 -10 -8 -23 -13 -29 -9 -6 3 -7 1 -3 -5 3 -6 -2 -15 -11
-21 -10 -6 -13 -11 -8 -11 6 0 11 -10 12 -21 2 -21 1 -21 -12 -3 -13 18 -14
17 -8 -6 3 -14 2 -22 -2 -18 -5 4 -14 3 -22 -3 -10 -9 -10 -15 -2 -25 12 -15
3 -38 -12 -29 -5 3 -6 -1 -3 -9 3 -9 10 -14 14 -11 4 3 4 -11 0 -30 -6 -25 -5
-33 4 -28 6 4 4 -2 -4 -12 -8 -10 -10 -16 -3 -12 6 4 15 3 18 -3 4 -6 1 -9 -7
-8 -8 2 -12 -6 -11 -22 1 -21 -9 -31 -60 -60 -129 -74 -384 -249 -483 -332
-283 -237 -508 -476 -697 -741 -81 -113 -202 -306 -253 -403 -24 -46 -48 -91
-53 -101 -49 -88 -153 -340 -206 -496 -47 -141 -112 -389 -121 -457 -1 -8 -8
-53 -17 -100 -39 -215 -52 -377 -52 -660 1 -210 5 -306 20 -420 3 -19 7 -54
10 -78 17 -164 87 -468 153 -667 227 -683 628 -1271 1180 -1731 222 -184 466
-345 724 -473 190 -96 463 -204 623 -247 6 -2 51 -14 100 -27 137 -38 335 -77
465 -92 30 -4 57 -8 60 -10 3 -2 55 -7 115 -12 199 -15 674 -8 770 12 11 2 42
7 69 10 50 6 255 41 291 50 47 11 202 47 225 52 14 3 35 6 48 6 12 1 22 4 22
9 0 4 7 5 15 2 9 -4 15 0 15 7 0 11 2 11 9 -1 6 -8 7 -19 5 -25 -3 -5 1 -2 9
8 11 14 16 15 20 5 4 -9 6 -10 6 -1 1 7 8 10 18 6 12 -5 14 -3 8 8 -6 11 -4
10 11 -2 10 -8 25 -14 32 -13 6 1 19 2 28 3 9 0 13 6 9 13 -4 7 1 4 9 -6 12
-15 16 -16 16 -5 0 8 3 10 8 4 6 -9 46 -13 55 -5 7 7 59 5 63 -2 3 -5 11 -5
17 1 20 16 23 16 40 2 14 -11 20 -11 32 -1 12 10 15 10 15 -1 0 -11 2 -11 10
1 5 8 10 10 10 5 0 -6 15 -11 34 -11 19 0 33 3 31 7 -6 8 37 5 52 -4 6 -4 14
-3 17 2 8 13 36 7 47 -10 7 -11 9 -11 9 0 0 11 3 11 15 1 9 -7 18 -10 22 -6 3
3 1 6 -5 6 -7 0 -12 4 -12 9 0 5 10 7 23 4 18 -4 19 -3 7 7 -12 10 -11 11 9 7
17 -4 25 -1 28 14 6 20 23 26 23 7 0 -6 9 -1 20 12 18 21 20 21 20 4 1 -18 1
-18 14 -2 12 17 14 16 25 -5 6 -12 9 -14 7 -5 -3 10 -1 20 4 23 6 4 10 -1 10
-9 0 -10 6 -13 15 -10 8 4 12 10 9 15 -3 5 0 9 5 9 6 0 11 -6 11 -12 0 -8 13
-13 30 -13 17 0 30 4 30 9 0 5 7 3 15 -4 8 -7 12 -17 8 -23 -3 -6 -1 -7 6 -3
9 6 9 11 0 22 -10 12 -6 13 22 9 19 -3 28 -3 22 1 -18 8 -16 25 1 18 8 -3 17
0 21 5 3 6 11 8 17 5 7 -4 8 -2 4 5 -6 9 -12 9 -24 -1 -12 -9 -11 -6 2 10 19
22 32 30 22 14 -3 -5 10 -9 29 -9 19 0 32 5 28 10 -4 6 0 6 11 0 22 -12 84 -4
65 8 -10 6 -7 9 10 9 20 0 22 2 11 15 -11 13 -10 14 6 9 10 -4 24 -11 31 -16
7 -6 14 -4 19 3 4 7 3 9 -3 6 -6 -4 -16 -1 -21 6 -9 10 -5 13 13 13 14 0 25
-3 25 -8 0 -4 11 -3 24 2 14 5 34 7 45 5 19 -3 20 -1 10 18 -7 12 -8 19 -4 15
5 -4 15 -3 22 4 11 9 17 9 24 -3 7 -11 9 -11 9 4 0 10 5 15 10 12 6 -4 7 -11
4 -17 -5 -7 -2 -8 5 -4 7 5 10 15 6 23 -5 14 -3 14 12 2 15 -12 16 -12 10 3
-4 12 1 23 16 33 20 14 22 14 29 -2 6 -17 7 -17 7 0 1 9 5 17 9 17 5 0 14 10
21 23 11 22 11 22 6 -3 -3 -14 -2 -19 1 -12 3 6 13 12 22 13 11 0 12 2 5 6 -7
2 -13 12 -13 21 0 15 2 15 10 2 8 -13 11 -12 25 5 15 20 15 20 9 0 -7 -20 -7
-20 9 0 8 11 13 23 11 26 -2 4 6 5 18 2 19 -4 20 -3 8 6 -13 9 -12 11 3 11 11
0 15 4 11 12 -5 7 -2 9 9 5 12 -4 14 -2 10 11 -6 15 -5 15 10 3 15 -12 17 -12
11 3 -3 9 -11 16 -17 16 -6 0 -7 3 -4 6 4 4 13 1 21 -5 13 -11 15 -9 11 8 -2
13 1 18 10 15 7 -3 16 0 21 7 4 7 3 10 -4 5 -6 -3 -14 -1 -18 5 -4 7 -3 9 4 5
6 -3 13 -2 17 4 4 6 11 7 17 4 7 -5 9 -1 5 9 -4 10 -2 16 6 14 7 -1 11 4 9 11
-1 8 7 16 18 19 19 5 25 20 21 52 -2 8 2 10 10 5 7 -4 10 -3 6 3 -4 6 0 16 8
23 12 10 15 10 15 0 0 -8 3 -10 6 -7 4 4 1 14 -6 22 -7 9 -9 15 -4 14 21 -4
28 2 14 11 -10 6 -11 10 -2 10 6 0 12 7 12 16 0 9 5 12 12 8 7 -4 8 -3 4 5 -4
6 -12 9 -17 6 -5 -4 -9 -1 -9 4 0 6 7 11 16 11 8 0 12 5 9 10 -6 10 6 14 35
11 13 -2 13 -1 0 9 -11 9 -12 13 -3 17 10 3 9 8 -2 19 -15 16 -10 44 8 44 6 0
3 6 -6 13 -15 11 -14 14 5 37 14 17 19 19 15 7 -4 -11 -3 -16 3 -12 6 3 10 13
10 21 0 8 5 12 10 9 17 -11 11 7 -7 21 -17 13 -17 14 0 8 14 -5 18 -2 15 12
-2 12 2 18 10 16 8 -1 11 2 7 8 -3 5 -14 10 -23 11 -14 0 -13 2 3 9 11 5 15 9
8 9 -7 1 -10 8 -6 18 5 12 3 14 -7 8 -9 -5 -11 -4 -6 3 4 7 15 12 24 12 14 0
14 2 3 9 -8 5 -14 23 -13 40 0 19 -3 29 -10 25 -6 -4 -6 1 1 14 14 27 14 45
-1 36 -7 -5 -8 -3 -4 5 5 7 15 10 23 6 13 -4 14 -3 4 9 -9 11 -9 16 0 22 8 4
9 3 5 -4 -14 -23 2 -12 17 11 12 19 13 24 2 24 -8 0 -12 -4 -9 -9 3 -4 -2 -5
-10 -2 -13 5 -12 9 7 25 12 10 17 18 12 19 -6 0 -17 -6 -24 -12 -10 -11 -11
-10 -6 5 4 9 15 17 24 18 10 0 11 2 4 6 -18 7 -16 21 5 26 16 4 16 5 0 6 -20
1 -25 21 -6 21 6 0 4 6 -7 13 -14 11 -15 16 -5 22 9 6 11 4 5 -5 -6 -9 -4 -11
4 -6 9 6 9 12 -3 25 -18 19 -6 48 15 36 8 -4 3 2 -10 15 -23 22 -23 24 -5 37
10 7 12 13 5 13 -7 0 -9 5 -6 10 4 6 11 7 17 4 7 -4 8 -2 4 4 -4 7 21 57 57
114 232 372 394 754 482 1138 26 112 45 204 51 245 3 28 8 59 10 70 10 46 22
145 31 260 15 170 7 704 -11 734 -2 3 -7 38 -11 76 -10 105 -48 305 -84 445
-147 568 -431 1106 -816 1544 -441 504 -996 876 -1630 1094 -110 38 -297 92
-319 92 -29 0 -67 23 -64 39 2 9 -7 24 -19 34 -27 21 -30 39 -6 30 11 -4 14
-3 9 5 -4 7 -14 12 -22 12 -9 0 -14 10 -13 28 0 15 3 21 6 15 2 -7 9 -13 15
-13 6 0 4 8 -5 18 -10 10 -14 22 -10 25 3 4 1 7 -5 7 -7 0 -12 -5 -12 -11 0
-5 -5 -7 -11 -3 -7 4 -7 9 -2 13 5 3 13 15 16 25 6 16 5 17 -8 6 -15 -12 -21
-3 -16 24 1 5 -5 4 -13 -3 -13 -11 -15 -9 -11 9 3 16 1 19 -8 12 -18 -14 -44
-11 -44 5 0 9 4 10 11 3 13 -13 26 -13 26 0 0 5 -3 9 -7 9 -5 -1 -10 0 -13 1
-19 7 -39 7 -34 -1 8 -14 -3 -10 -20 7 -9 9 -16 11 -16 4 0 -6 -5 -8 -12 -4
-8 5 -9 1 -5 -12 7 -19 7 -19 -8 0 -12 16 -17 17 -30 6 -14 -12 -20 -7 -16 14
1 5 -4 4 -12 -2 -8 -7 -17 -9 -20 -5 -4 3 -7 2 -7 -3 0 -5 -13 -9 -30 -9 -16
-1 -30 2 -30 5 0 10 -44 6 -52 -5 -5 -6 -8 -4 -8 5 0 13 -1 13 -10 0 -5 -8
-10 -10 -10 -4 0 5 -11 10 -25 10 -18 0 -22 -3 -14 -12 8 -9 5 -11 -12 -7 -14
4 -20 2 -16 -4 4 -6 0 -13 -8 -16 -9 -4 -12 -1 -8 9 3 7 1 14 -5 14 -6 0 -9
-11 -8 -25 3 -21 1 -23 -15 -14 -13 6 -19 6 -19 -1 0 -5 -3 -9 -7 -9 -21 3
-24 -3 -12 -18 12 -14 12 -16 0 -8 -11 6 -13 4 -8 -8 3 -10 2 -17 -3 -17 -5 0
-6 -7 -3 -17 5 -12 3 -14 -8 -8 -11 7 -11 5 1 -10 14 -17 13 -18 -5 -12 -19 7
-19 6 -2 -7 9 -7 17 -15 17 -17 0 -10 -266 3 -275 13 -7 7 -2 9 15 5 23 -6 24
-5 6 8 -13 10 -17 21 -12 39 4 18 2 26 -6 26 -8 0 -9 3 -3 8 12 9 16 52 4 52
-5 0 -5 8 -2 18 6 15 5 16 -13 2 -10 -8 -16 -10 -12 -6 4 5 3 15 -3 22 -8 9
-5 11 13 8 13 -2 7 2 -12 10 -19 8 -31 15 -27 15 4 1 2 7 -5 15 -10 11 -17 11
-28 3 -8 -7 -6 -1 5 12 11 14 14 21 8 17 -7 -4 -13 -3 -13 2 0 5 -12 14 -27
21 -22 10 -24 10 -15 -1 8 -11 7 -14 -8 -14 -10 0 -17 3 -15 6 2 3 0 12 -6 20
-7 13 -9 12 -9 -2 0 -10 -7 -18 -16 -18 -14 0 -15 2 -3 18 13 16 13 16 -6 2
-11 -8 -23 -19 -27 -25 -4 -6 -8 -1 -8 10 -1 19 -2 19 -14 3 -12 -17 -14 -16
-25 5 -6 12 -9 14 -7 5z m263 -253 c0 -8 -4 -12 -9 -9 -5 3 -6 10 -3 15 9 13
12 11 12 -6z m-532 -14 c3 -5 2 -12 -3 -15 -5 -3 -9 1 -9 9 0 17 3 19 12 6z
m-705 -51 c0 -5 -5 -10 -11 -10 -5 0 -7 5 -4 10 3 6 8 10 11 10 2 0 4 -4 4
-10z m-454 -175 c-8 -8 -18 -15 -22 -15 -3 0 -1 7 6 15 7 8 17 15 22 15 5 0 3
-7 -6 -15z m4709 -6605 c3 -5 1 -10 -4 -10 -6 0 -11 5 -11 10 0 6 2 10 4 10 3
0 8 -4 11 -10z m-1090 -560 c3 -6 -1 -7 -9 -4 -18 7 -21 14 -7 14 6 0 13 -4
16 -10z"/>
<path d="M4468 8033 c7 -3 16 -2 19 1 4 3 -2 6 -13 5 -11 0 -14 -3 -6 -6z"/>
<path d="M4815 7810 c3 -5 8 -10 11 -10 2 0 4 5 4 10 0 6 -5 10 -11 10 -5 0
-7 -4 -4 -10z"/>
<path d="M7030 1266 c0 -2 9 -6 20 -9 11 -3 18 -1 14 4 -5 9 -34 13 -34 5z"/>
<path d="M6908 933 c7 -3 16 -2 19 1 4 3 -2 6 -13 5 -11 0 -14 -3 -6 -6z"/>
<path d="M6575 660 c-3 -6 1 -7 9 -4 18 7 21 14 7 14 -6 0 -13 -4 -16 -10z"/>
<path d="M5390 411 c0 -6 4 -13 10 -16 6 -3 7 1 4 9 -7 18 -14 21 -14 7z"/>
</g>
</svg>
